<svg id="Layer_1" xmlns="http://www.w3.org/2000/svg" viewBox="0 0 303.5 125.9"><style>.st0{fill:#dc1f27}.st1{fill:#807f83}</style><path class="st0" d="M226.8 23c0-13.1-.4-15.4-6.1-16.1l-4.4-.6c-1-.7-1-2.9.1-3.4 7.7-.7 17.2-1.1 30.7-1.1 8.5 0 16.7.7 23 4.1 6.6 3.4 11.4 9.7 11.4 19.3 0 13.1-10.3 20.3-17.2 23-.7.8 0 2.2.7 3.3 11 17.8 18.3 28.8 27.7 36.7 2.3 2.1 5.8 3.6 9.5 3.9.7.3.8 1.4.1 1.9-1.2.4-3.4.7-6.1.7-11.7 0-18.8-3.4-28.5-17.4-3.6-5.1-9.2-14.6-13.5-20.8-2.1-3-4.3-4.4-9.8-4.4-6.2 0-6.5.1-6.5 3v17.4c0 14.5.3 16.1 8.3 17.2l2.9.4c.8.7.6 3-.3 3.4-6.2-.3-10.9-.4-16.4-.4-5.8 0-10.8.1-17.2.4-.8-.4-1.1-2.5-.3-3.4l3.4-.4c8-1 8.3-2.8 8.3-17.2V23zm11.3 19.7c0 2.5 0 4 .4 4.6.4.4 2.5.7 9.5.7 5 0 10.2-.6 14.2-3.6 3.7-2.9 6.9-7.7 6.9-17.1 0-10.9-6.8-21.2-22.1-21.2-8.5 0-9 .6-9 4.4v32.2z"/><path class="st1" d="M203.3 70.3c-3.1 8-10.9 19.4-28.4 19.4-22.3 0-40.3-15.7-40.3-44.2 0-28.1 17.6-41.3 38.4-41.3 19.7 0 25.8 10.6 27.8 19.8 1 .8 3 .7 3.7-.3-1.1-8.3-1.8-16.8-1.9-19.9-1.2.1-2.2-.1-3.8-.5-6.4-1.8-16.7-3.3-24-3.3-14.1 0-26.7 3.8-36.6 11.5-5.5 4.3-10.1 10-13 16.7.1-7.6.5-16.5 1.9-19.7.8-1.8 3.4-3 6.8-3.3L137 5c.7-.8.8-2.6-.3-3.3-4.9.3-8.6.4-14.3.4-5.3 0-10.3-.1-15.5-.4-.8.5-1.1 2.3-.3 3.3l3.4.3c3.4.3 5.8 1.2 6.8 2.9 2.3 4.1 2.6 19.7 2.6 28.1v15.6c0 20.6-7.5 36.1-27.1 36.1-20.8 0-27.5-14.4-27.5-36.2V22.4c0-14.1.3-16.4 8.2-17.1l3.2-.3c.8-.5.5-2.8-.3-3.3-6.6.3-11.1.5-16.7.5-5.4 0-10-.1-16.8-.4-.8.4-1.1 2.7-.3 3.3l3.4.3c7.9.7 8.1 3 8.1 17.1v32c0 16.1 3.4 26.1 10.6 32 6.6 5.7 16 7.5 25.4 7.5 10 0 20.1-3.5 25.9-9.9 4.8-5.2 7.3-12.1 8.5-19.4 3.4 8.8 9.3 15.5 16.2 20.3 9.9 6.7 21.6 9.1 33.8 9.1 8.7 0 18.5-2 21.4-3.1 1.5-.5 3.1-1.1 4.8-1.4 2-2.6 5.6-11.5 6.5-18.6-.4-1.1-2.5-1.4-3.4-.7M27.8 108.1h1.9v7.4c0 1-.1 1.8-.2 2.3-.1.5-.3.9-.5 1.3-.2.3-.5.6-.8.9-1 .9-2.4 1.3-4 1.3-1.7 0-3.1-.4-4.1-1.3-.3-.3-.6-.6-.8-.9-.2-.3-.4-.8-.5-1.2-.1-.5-.2-1.3-.2-2.3v-7.4h1.9v7.4c0 1.2.1 2.1.4 2.6.3.5.7.9 1.3 1.2.6.3 1.2.4 2 .4 1.1 0 2-.3 2.7-.9.4-.3.6-.7.8-1.1.2-.4.2-1.1.2-2.2v-7.5zm7.9 4.4v1.1c.8-.8 1.6-1.3 2.6-1.3.5 0 1 .1 1.5.4.5.3.8.7 1 1.1.2.5.4 1.2.4 2.3v4.9h-1.7v-4.9c0-.9-.1-1.5-.4-1.9-.3-.4-.7-.6-1.3-.6-.8 0-1.5.4-2 1.2v6.1H34v-8.6h1.7zm10.7-3.6c.3 0 .5.1.7.3.2.2.3.4.3.7 0 .3-.1.5-.3.7-.2.2-.4.3-.7.3-.3 0-.5-.1-.7-.3-.2-.2-.3-.4-.3-.7 0-.3.1-.5.3-.7.3-.2.5-.3.7-.3m-.8 3.6h1.7v8.6h-1.7v-8.6zm11.4 0h1.9l-3.8 8.8h-.6l-3.9-8.8h1.9l2.3 5.3zm12.1 4.5h-6c0 .8.3 1.5.8 2s1.2.7 2 .7c1.1 0 2.2-.3 3.1-1v1.7c-.5.3-1 .6-1.6.7-.5.2-1.1.2-1.8.2-.9 0-1.7-.2-2.3-.6-.6-.4-1.1-.9-1.4-1.6-.4-.7-.5-1.4-.5-2.3 0-1.3.4-2.4 1.1-3.2.7-.8 1.7-1.2 2.9-1.2 1.1 0 2 .4 2.7 1.2.7.8 1 1.9 1 3.2v.2zm-6-1h4.3c0-.7-.2-1.2-.6-1.6-.4-.4-.8-.6-1.5-.6-.6 0-1.1.2-1.5.6-.4.4-.6.9-.7 1.6m11.6-3.5v2l.1-.1c.8-1.3 1.6-2 2.5-2 .6 0 1.3.3 2 1l-.9 1.5c-.6-.6-1.1-.8-1.6-.8s-1 .3-1.4.8c-.4.5-.6 1.1-.6 1.9v4.5H73v-8.6h1.7zm7.4 8v-1.8c.5.3 1 .6 1.5.8.5.2.9.3 1.3.3s.7-.1.9-.3c.3-.2.4-.4.4-.6 0-.2-.1-.5-.2-.6-.2-.2-.5-.4-1.1-.7-1.1-.6-1.8-1.1-2.2-1.6-.3-.4-.5-.9-.5-1.4 0-.7.3-1.2.8-1.6.5-.4 1.2-.6 2-.6s1.7.2 2.6.7v1.7c-1-.6-1.8-.9-2.5-.9-.3 0-.6.1-.8.2-.2.1-.3.3-.3.6 0 .2.1.4.3.6.2.2.5.4 1 .7l.6.3c1.4.8 2.1 1.7 2.1 2.7 0 .7-.3 1.3-.8 1.7-.6.5-1.3.7-2.1.7-.5 0-1-.1-1.4-.2-.5-.2-1-.4-1.6-.7m10.6-11.6c.3 0 .5.1.7.3.2.2.3.4.3.7 0 .3-.1.5-.3.7-.2.2-.4.3-.7.3-.3 0-.5-.1-.7-.3-.2-.2-.3-.4-.3-.7 0-.3.1-.5.3-.7.2-.2.5-.3.7-.3m-.8 3.6h1.7v8.6h-1.7v-8.6zm4.9 1.4l3.2-3.1v1.8h2.7v1.5H100v4.2c0 1 .4 1.5 1.2 1.5.6 0 1.3-.2 1.9-.6v1.6c-.7.4-1.4.5-2.1.5-.8 0-1.4-.2-1.9-.7-.2-.1-.3-.3-.4-.5-.1-.2-.2-.4-.3-.7-.1-.3-.1-.8-.1-1.6V114h-1.5v-.1zm14.9-1.4h1.9l-6.1 13h-1.9l2.9-6.2-3.3-6.8h1.9l2.4 4.9zm23.9 5.6v2.1c-1.4.7-2.9 1.1-4.7 1.1-1.5 0-2.7-.3-3.7-.9-1-.6-1.8-1.4-2.4-2.4-.6-1-.9-2.1-.9-3.3 0-1.9.7-3.5 2-4.8 1.4-1.3 3-1.9 5-1.9 1.4 0 2.9.4 4.6 1.1v2c-1.5-.9-3-1.3-4.5-1.3s-2.7.5-3.7 1.4c-1 .9-1.5 2.1-1.5 3.5s.5 2.6 1.5 3.5c1 .9 2.2 1.4 3.7 1.4 1.5-.1 3.1-.5 4.6-1.5m8.1-5.6c1.3 0 2.4.4 3.3 1.3.9.8 1.3 1.9 1.3 3.2 0 1.2-.4 2.3-1.3 3.1-.9.8-2 1.2-3.3 1.2-1.3 0-2.4-.4-3.2-1.2-.9-.8-1.3-1.9-1.3-3.1 0-1.3.4-2.3 1.3-3.1.8-1 1.9-1.4 3.2-1.4m-.1 1.5c-.8 0-1.5.3-2 .8s-.8 1.2-.8 2 .3 1.5.8 2 1.2.8 2.1.8c.8 0 1.5-.3 2-.8s.8-1.2.8-2-.3-1.5-.8-2-1.2-.8-2.1-.8m8.6-5.9h1.7v13h-1.7zm6.2 0h1.7v13h-1.7zm13.5 8.9h-6c0 .8.3 1.5.8 2s1.2.7 2 .7c1.1 0 2.2-.3 3.1-1v1.7c-.5.3-1 .6-1.6.7-.5.2-1.1.2-1.8.2-.9 0-1.7-.2-2.3-.6-.6-.4-1.1-.9-1.4-1.6-.4-.7-.5-1.4-.5-2.3 0-1.3.4-2.4 1.1-3.2.7-.8 1.7-1.2 2.9-1.2 1.1 0 2 .4 2.7 1.2.7.8 1 1.9 1 3.2v.2zm-6-1h4.3c0-.7-.2-1.2-.6-1.6-.4-.4-.8-.6-1.5-.6-.6 0-1.1.2-1.5.6-.3.4-.6.9-.7 1.6m9.4-.5c0-.9.3-1.6 1-2.2.7-.5 1.6-.8 2.7-.8h3.5v1.3h-1.7c.3.3.6.7.7.9.1.3.2.6.2 1s-.1.9-.4 1.3c-.3.4-.6.8-1 1-.4.2-1.1.4-2 .6-.6.1-1 .3-1 .7 0 .2.1.4.4.5.2.1.7.3 1.3.4 1 .2 1.7.4 2 .5.3.1.6.3.8.6.4.4.6.9.6 1.5 0 .8-.4 1.5-1.1 2-.7.5-1.7.7-2.9.7s-2.2-.2-2.9-.7c-.7-.5-1.1-1.1-1.1-2 0-1.2.7-1.9 2.2-2.2-.6-.4-.9-.7-.9-1.1 0-.3.1-.5.4-.7.2-.2.6-.4 1-.5-1.2-.6-1.8-1.6-1.8-2.8m2.8 6c-.6 0-1 .1-1.4.4-.4.2-.5.6-.5.9 0 .9.8 1.3 2.4 1.3.8 0 1.3-.1 1.8-.3.4-.2.6-.5.6-.9s-.3-.7-.8-1c-.6-.3-1.3-.4-2.1-.4m.4-7.5c-.5 0-.9.2-1.2.5-.3.3-.5.7-.5 1.1 0 .4.2.8.5 1.1.3.3.7.4 1.2.4s.9-.1 1.2-.4c.3-.3.5-.7.5-1.1 0-.4-.2-.8-.5-1.1-.3-.3-.7-.5-1.2-.5m14.7 3h-6c0 .8.3 1.5.8 2s1.2.7 2 .7c1.1 0 2.2-.3 3.1-1v1.7c-.5.3-1 .6-1.6.7-.5.2-1.1.2-1.8.2-.9 0-1.7-.2-2.3-.6-.6-.4-1.1-.9-1.4-1.6-.4-.7-.5-1.4-.5-2.3 0-1.3.4-2.4 1.1-3.2.7-.8 1.7-1.2 2.9-1.2 1.1 0 2 .4 2.7 1.2.7.8 1 1.9 1 3.2v.2zm-6-1h4.3c0-.7-.2-1.2-.6-1.6-.4-.4-.8-.6-1.5-.6-.6 0-1.1.2-1.5.6-.3.4-.6.9-.7 1.6"/><path class="st0" d="M206.9 109.5c0-2.2-.1-2.6-1-2.7l-.7-.1c-.2-.1-.2-.5 0-.6 1.3-.1 2.9-.2 5.1-.2 1.4 0 2.8.1 3.8.7 1.1.6 1.9 1.6 1.9 3.2 0 2.2-1.7 3.4-2.9 3.8-.1.1 0 .4.1.5 1.8 3 3 4.8 4.6 6.1.4.3 1 .6 1.6.6.1 0 .1.2 0 .3-.2.1-.6.1-1 .1-1.9 0-3.1-.6-4.7-2.9-.6-.8-1.5-2.4-2.2-3.5-.3-.5-.7-.7-1.6-.7-1 0-1.1 0-1.1.5v2.9c0 2.4 0 2.7 1.4 2.9l.5.1c.1.1.1.5 0 .6-1 0-1.8-.1-2.7-.1-1 0-1.8 0-2.9.1-.1-.1-.2-.4 0-.6l.6-.1c1.3-.2 1.4-.5 1.4-2.9v-8zm1.9 3.2c0 .4 0 .7.1.8.1.1.4.1 1.6.1.8 0 1.7-.1 2.4-.6.6-.5 1.1-1.3 1.1-2.8 0-1.8-1.1-3.5-3.7-3.5-1.4 0-1.5.1-1.5.7v5.3zm21.4 2c-.1 1.3-.7 3.5-2.4 5.2-1.4 1.5-2.7 1.6-3.3 1.6-1.5 0-2.4-1.1-2.3-3 .1-1.4.9-3.6 2.5-5.1 1.2-1.1 2.2-1.5 3.2-1.5 1.6-.1 2.4 1.1 2.3 2.8m-4.2-1.1c-1.3 1.8-2.2 4.5-2.3 5.7 0 .8.3 1.5.9 1.5.5 0 1.1-.2 1.8-1.2 1-1.4 2.1-4.4 2.1-5.6 0-.7-.1-1.5-.9-1.5-.3 0-.9.2-1.6 1.1m15.9 1.1c-.1 1.3-.7 3.5-2.4 5.2-1.4 1.5-2.7 1.6-3.3 1.6-1.5 0-2.4-1.1-2.3-3 .1-1.4.9-3.6 2.5-5.1 1.2-1.1 2.2-1.5 3.2-1.5 1.6-.1 2.4 1.1 2.3 2.8m-4.2-1.1c-1.3 1.8-2.2 4.5-2.3 5.7 0 .8.3 1.5.9 1.5.5 0 1.1-.2 1.8-1.2 1-1.4 2.1-4.4 2.1-5.6 0-.7-.1-1.5-.9-1.5-.3 0-.9.2-1.6 1.1m13.4-.5c0 .4-.2.6-.4.7-.2 0-.3 0-.4-.2-.4-.4-.7-.7-1.4-.7s-.9.6-.9.9c0 .5.1 1 .8 2.1.6 1 .9 1.5.9 2.5 0 .6-.3 1.5-1.2 2.2-.6.5-1.4.8-2.3.8-.9 0-1.4-.7-1.4-1.2 0-.2.1-.5.3-.8.2-.2.4-.2.6 0 .3.3 1 .9 1.6.9.5 0 1.1-.6 1.1-1.3 0-.4-.3-1.1-.8-2-.6-1-.8-1.7-.8-2.1 0-.9.4-1.6 1.4-2.4.7-.6 1.4-.8 1.7-.8.6.1 1.2.8 1.2 1.4m10.5 0c0 1.7-2.3 2.9-5.6 3.8-.2.4-.3 1.1-.3 2 0 .8.5 1.3 1.1 1.3.8 0 1.4-.5 2.4-1.3.2 0 .3.2.3.4-1.4 1.7-2.7 2.1-3.7 2.1-1.4 0-1.9-1.3-1.9-2.4 0-1.4.9-4.2 3.4-6.2 1.2-.9 2.1-1.1 2.7-1.1 1 .1 1.6.8 1.6 1.4m-3.7.5c-.9 1-1.4 2-1.7 2.7 1.5-.5 2.2-.9 3.1-1.7.7-.7.9-1.4.9-1.6 0-.2-.1-.5-.5-.5s-1 .2-1.8 1.1m9.4.2c.2-.4.1-.7-.2-.7-.4 0-1.4.8-2.1 1.6-.2 0-.4-.2-.3-.4.7-1 2.3-2.5 3.6-2.5.5 0 1 .7.7 1.5l-2 5.1c-.1.3-.2.8-.2 1.1 0 .4.2.8.7.8.5 0 1.5-.5 2.5-1.7 1.3-1.5 2-3.3 2-4.4 0-.5 0-1.1-.2-1.6 0-.5.4-.8.8-.8.7 0 .9.8.9 1.4 0 1.7-1.7 4.9-3.7 6.6-1.7 1.4-3 1.7-3.6 1.7-.6 0-1.1-.7-1.1-1.4 0-.5.2-1.3.6-2.2l1.6-4.1zm16.6-.7c0 1.7-2.3 2.9-5.6 3.8-.2.4-.3 1.1-.3 2 0 .8.5 1.3 1.1 1.3.8 0 1.4-.5 2.4-1.3.2 0 .3.2.3.4-1.4 1.7-2.7 2.1-3.7 2.1-1.4 0-1.9-1.3-1.9-2.4 0-1.4.9-4.2 3.4-6.2 1.2-.9 2.1-1.1 2.7-1.1 1.1.1 1.6.8 1.6 1.4m-3.6.5c-.9 1-1.4 2-1.7 2.7 1.5-.5 2.2-.9 3.1-1.7.7-.7.9-1.4.9-1.6 0-.2-.1-.5-.5-.5s-1 .2-1.8 1.1"/><path d="M288.4 119.6c-.2.5-.2.8.1.8.5 0 1.6-1.1 2.6-2.3.2 0 .4.1.4.3-.6 1.1-2 3-3.9 3-.7 0-.9-.3-.9-.7 0-.4.1-.8.5-1.9l3.6-10.8c.5-1.6.3-1.8 0-2l-.4-.2c-.1-.1-.1-.3 0-.4.4-.2 1.8-.6 2.9-.7l.1.1c-.3.8-.5 1.5-1.4 3.9l-3.6 10.9z" fill="#cd1f40"/><path class="st0" d="M298.9 113l-2.1 6.2c-.1.4 0 .6.2.6.3 0 1.9-1.2 2.6-2.1.2 0 .4.1.3.4-1.3 1.9-3.4 3.3-4.4 3.3-.3 0-.6-.3-.6-.6s.1-.6.3-1.3l2.2-6.5h-1.8c0-.2 0-.5.3-.6l1.8-.3 1.3-2.3c.2-.1.7-.1.9.1l-.7 2.2h2.5c.2.2 0 .7-.3.8h-2.5z"/><path class="st1" d="M6.7 125.9c-.3 0-.6-.3-.6-.6V91.2c0-.8-.6-1.8-1.4-2.1L2 87.9c-1.1-.5-2-1.9-2-3.2V46.2c0-1.2.8-2.7 1.8-3.4 1-.7 2.7-.7 3.7 0s1.7 2.2 1.7 3.4v38.3c0 .7.4 1.3.9 1.3s.9-.6.9-1.3v-1.3c0-1.4 1.1-2.5 2.5-2.5h4.1c1.4 0 2.5 1.1 2.5 2.5v1.3c0 .9.6 2.1 1.2 2.7l.1.1c.6.5 1.5.5 2.1 0l.2-.1c.7-.5 1.2-1.8 1.2-2.6V46.1c0-.8-.6-2-1.3-2.5-.7-.5-1.8-.5-2.4-.1-.7.5-1.3 1.7-1.3 2.5v29.6c0 1.4-1.1 2.5-2.5 2.5H11c-1.4 0-2.5-1.1-2.5-2.5V52.8c0-1.4.9-2.5 2.1-2.5.5 0 .9-.6.9-1.3v-9.1c0-1-.4-1.8-.6-1.9-.6-.4-1.1-1.4-1.1-2.4 0-1.1.9-2 1.9-2 .2 0 .3-.1.3-.1v-.1c-.4-.8-.1-2 .8-2.5.5-.3.8-.8.9-.9 0-.9 1.7-1.6 1.8-1.7.5-.2.9-.4 1.1-.6-.1-.1-.3-.4-.6-.6-.5-.4-1-1.1-1-1.7 0-1 1.9-1.5 2.3-1.6.7-.2 1.4-1 1.4-1.8V8.8c0-1.4.7-2.5 1.7-2.5.9 0 1.7 1.1 1.7 2.5V22c0 .8.6 1.6 1.4 1.8.4.1 2.2.6 2.2 1.6 0 .6-.6 1.3-1.1 1.7-.3.2-.5.5-.6.6.2.2.6.4 1.3.6.2.1 2.1.7 2.1 1.7 0 .1.3.6.7.9.7.6 1 1.6.7 2.5v.2s.1.1.2.1c1 0 1.7.9 1.7 1.9 0 .8-.3 1.9-1 2.3-.2.1-.5.9-.5 1.9v9.5c0 .7.6 1.3 1.3 1.3h.3c.7 0 1.3-.6 1.3-1.3v-3.2c0-1.2.7-2.7 1.7-3.4 1-.8 2.6-.8 3.7 0 1.1.7 1.9 2.2 1.9 3.5v38.5c0 1.2-.7 2.7-1.7 3.5l-.3.3c-1 .8-2.6.8-3.6-.1l-.2-.1c-.9-.8-1.6-2.4-1.6-3.6V56.9c0-.7-.6-1.3-1.3-1.3h-.3c-.7 0-1.3.6-1.3 1.3v18.8c0 1 .5 2 .9 2.4.7.6 1.3 2.1 1.3 3.3v17.1c0 .7.6 1.3 1.3 1.3H303c.3 0 .6.3.6.6s-.3.6-.6.6H32.5c-1.4 0-2.5-1.1-2.5-2.5V81.3c0-1-.5-2-.9-2.4-.7-.6-1.3-2.1-1.3-3.3V56.9c0-1.4 1.1-2.5 2.5-2.5h.3c1.4 0 2.5 1.1 2.5 2.5v27.6c0 .9.6 2.1 1.2 2.7l.2.1c.5.5 1.5.5 2.1.1l.3-.3c.7-.5 1.2-1.8 1.2-2.6V46.1c0-.8-.6-2-1.3-2.5-.7-.5-1.8-.5-2.4 0-.6.5-1.2 1.7-1.2 2.5v3.2c0 1.4-1.1 2.5-2.5 2.5h-.3c-1.4 0-2.5-1.1-2.5-2.5v-9.5c0-1.1.3-2.4 1-2.8.2-.1.5-.7.5-1.3 0-.4-.3-.8-.6-.8-.5 0-.9-.2-1.2-.6-.3-.4-.3-.8-.1-1.3.1-.4 0-.9-.4-1.2-.6-.4-1.1-1.1-1.2-1.7-.1-.1-.6-.5-1.3-.7-.5-.2-2.1-.7-2.1-1.6 0-.6.6-1.2 1.1-1.6.3-.2.5-.5.6-.7-.2-.1-.7-.4-1.3-.6-1.3-.3-2.2-1.6-2.2-2.9V8.8c0-.8-.4-1.3-.5-1.3-.1 0-.5.4-.5 1.3V22c0 1.3-1 2.6-2.3 2.9-.7.2-1.2.4-1.3.6.1.2.3.5.6.7.4.3 1 1 1 1.6 0 .8-1.3 1.4-1.8 1.6-.7.3-1.1.6-1.1.7 0 .5-.7 1.3-1.4 1.7-.4.3-.6.8-.4 1.1.2.4.2.9 0 1.3-.3.4-.7.6-1.3.6-.4 0-.8.4-.8.8 0 .7.3 1.3.6 1.4.7.5 1.1 1.8 1.1 2.9V49c0 1.4-.9 2.5-2.1 2.5-.5 0-.9.6-.9 1.3v22.9c0 .7.6 1.3 1.3 1.3h4.4c.7 0 1.3-.6 1.3-1.3V46.1c0-1.2.8-2.7 1.7-3.5 1.1-.8 2.7-.8 3.7 0 1.1.8 1.8 2.3 1.8 3.5v38.4c0 1.2-.7 2.7-1.7 3.5l-.2.1c-1 .8-2.6.8-3.6-.1l-.1-.1c-.9-.8-1.6-2.4-1.6-3.6V83c0-.7-.6-1.3-1.3-1.3h-4.1c-.7 0-1.3.6-1.3 1.3v1.3c0 1.4-.9 2.5-2 2.5s-2-1.1-2-2.5V46.2c0-.8-.6-2-1.2-2.5-.6-.4-1.7-.4-2.3 0-.7.5-1.3 1.6-1.3 2.5v38.5c0 .8.6 1.8 1.4 2.1L5.2 88c1.2.5 2.1 1.9 2.1 3.2v34.1c0 .3-.3.6-.6.6z"/><path id="SVGID_3_" fill="none" d="M0 0h303.5v125.9H0z"/></svg>